Coordinates
version=1
nRows=4
nColumns=63
inDegrees=yes

Units are S.I. units (second, meters, Newtons, ...)
If the header above contains a line with 'inDegrees', this indicates whether rotational values are in degrees (yes) or radians (no).

endheader
time	pelvis_tilt	pelvis_list	pelvis_rotation	pelvis_tx	pelvis_ty	pelvis_tz	hip_flexion_r	hip_adduction_r	hip_rotation_r	knee_angle_r	knee_angle_r_beta	ankle_angle_r	subtalar_angle_r	mtp_angle_r	hip_flexion_l	hip_adduction_l	hip_rotation_l	knee_angle_l	knee_angle_l_beta	ankle_angle_l	subtalar_angle_l	mtp_angle_l	L5_S1_Flex_Ext	L5_S1_Lat_Bending	L5_S1_axial_rotation	L4_L5_Flex_Ext	L4_L5_Lat_Bending	L4_L5_axial_rotation	L3_L4_Flex_Ext	L3_L4_Lat_Bending	L3_L4_axial_rotation	L2_L3_Flex_Ext	L2_L3_Lat_Bending	L2_L3_axial_rotation	L1_L2_Flex_Ext	L1_L2_Lat_Bending	L1_L2_axial_rotation	L1_T12_Flex_Ext	L1_T12_Lat_Bending	L1_T12_axial_rotation	Abs_r3	Abs_r2	Abs_r1	Abs_t1	Abs_t2	neck_flexion	neck_bending	neck_rotation	arm_flex_r	arm_add_r	arm_rot_r	elbow_flex_r	pro_sup_r	wrist_flex_r	wrist_dev_r	arm_flex_l	arm_add_l	arm_rot_l	elbow_flex_l	pro_sup_l	wrist_flex_l	wrist_dev_l
      0.00000000	      2.37747059	     -4.85787070	    120.66518837	      0.29570758	      0.62006766	      0.85520980	     -0.71462148	     -1.23082506	    -14.86740788	     10.21549133	      0.17829396	     27.01154016	      4.83551194	      0.00000000	     -1.84477985	      1.42070096	     11.30480165	      2.16111585	      0.03771859	     22.95326895	     -3.35253114	      0.00000000	      0.20450647	      0.00008521	     -1.72401420	      0.37978896	      0.00011333	     -1.83176509	      0.33598368	      0.00020719	     -1.83176509	      0.23373044	      0.00020719	     -1.50851243	      0.18990471	      0.00017377	     -1.40076154	      0.11685500	      0.00013199	     -1.29301065	      1.46076925	      0.00096395	     -9.58844978	      0.00000000	      0.00000000	     26.99309940	     -1.75623441	      2.42307212	     19.73061066	    -13.03913455	     68.55844952	     48.24848634	     88.58230037	      7.69873644	     20.67122739	     12.26502313	     -9.08853195	     53.94497400	     52.09270747	     85.58513814	      7.98437429	     26.71467080
      0.01666667	      2.07905937	     -4.44785204	    119.87849855	      0.29453829	      0.62142777	      0.85299672	     -1.23412238	     -1.41713949	    -14.62821845	     10.14258276	      0.17702146	     27.65699904	      5.49569295	      0.00000000	     -2.91086845	      1.53565147	     10.60045566	      1.55727128	      0.02717951	     23.31289495	     -3.52720006	      0.00000000	      0.15207086	      0.00580377	     -1.59874707	      0.28241080	      0.00771901	     -1.69866876	      0.24983722	      0.01411128	     -1.69866876	      0.17380179	      0.01411128	     -1.39890368	      0.14121300	      0.01183505	     -1.29898199	      0.08689329	      0.00899004	     -1.19906030	      1.08622697	      0.06565340	     -8.89175157	      0.00000000	      0.00000000	     26.27259460	     -2.23451276	      2.36620889	     19.20754459	    -13.14036181	     67.89872841	     48.15250056	     88.45252220	      6.93852394	     20.24151418	     11.56968787	     -8.02601916	     50.51156718	     50.75874823	     81.89008183	      6.75133674	     25.48026198
      0.03333333	      2.06789490	     -4.24681467	    118.89473165	      0.29429913	      0.62201706	      0.85066453	     -1.44547368	     -1.57395535	    -16.12419280	     10.03301706	      0.17510918	     28.51070275	      8.91514231	      0.00000000	     -3.49934210	      1.49645016	      7.93788601	      1.23941784	      0.02163192	     23.92709960	     -1.50181678	      0.00000000	      0.15749593	      0.02977046	     -1.43866607	      0.29248569	      0.03959471	     -1.52858270	      0.25875007	      0.07238388	     -1.52858270	      0.18000210	      0.07238388	     -1.25883281	      0.14625072	      0.06070791	     -1.16891618	      0.08999318	      0.04611444	     -1.07899955	      1.12497769	      0.33676934	     -8.00142909	      0.00000000	      0.00000000	     25.98621242	     -2.47913711	      2.72198850	     19.15044421	    -13.31156023	     68.51257901	     48.12341027	     88.44975337	      6.65017714	     20.09839886	     12.42219453	     -8.10842587	     52.82703770	     50.09385533	     68.42908767	      2.35456976	     25.59612745
      0.05000000	      1.97992912	     -3.88900732	    118.03767583	      0.29406036	      0.62268282	      0.84858461	     -1.82992749	     -1.54520840	    -15.72114569	      9.90651110	      0.17290124	     28.84253964	      9.64461186	      0.00000000	     -4.22260548	      1.47830280	      6.92244359	      1.02701164	      0.01792473	     23.82525309	     -1.57836985	      0.00000000	      0.13628618	      0.04979322	     -1.29078893	      0.25309707	      0.06622498	     -1.37146323	      0.22390457	      0.12106723	     -1.37146323	      0.15576148	      0.12106723	     -1.12944031	      0.12655535	      0.10153833	     -1.04876600	      0.07787392	      0.07712969	     -0.96809169	      0.97347857	      0.56327083	     -7.17898077	      0.00000000	      0.00000000	     25.67605624	     -2.68444549	      2.79502787	     19.13859868	    -13.38258890	     68.78901057	     48.02397836	     88.48343122	      7.73529658	     20.77667791	     12.77175621	     -7.74940319	     52.86787191	     49.29128004	     68.60688827	      2.88710072	     24.89160769
